<?xml version="1.0" encoding="UTF-8" standalone="no"?>
<svg
   id="Layer_2"
   data-name="Layer 2"
   viewBox="0 0 70.000002 70.000004"
   version="1.1"
   sodipodi:docname="zju.svg"
   width="70"
   height="70"
   inkscape:version="1.2.2 (732a01da63, 2022-12-09)"
   xmlns:inkscape="http://www.inkscape.org/namespaces/inkscape"
   xmlns:sodipodi="http://sodipodi.sourceforge.net/DTD/sodipodi-0.dtd"
   xmlns="http://www.w3.org/2000/svg"
   xmlns:svg="http://www.w3.org/2000/svg">
  <defs
     id="defs224" />
  <sodipodi:namedview
     id="namedview222"
     pagecolor="#ffffff"
     bordercolor="#000000"
     borderopacity="0.25"
     inkscape:showpageshadow="2"
     inkscape:pageopacity="0.0"
     inkscape:pagecheckerboard="0"
     inkscape:deskcolor="#d1d1d1"
     showgrid="false"
     inkscape:zoom="13.51661"
     inkscape:cx="58.335633"
     inkscape:cy="40.986608"
     inkscape:window-width="2560"
     inkscape:window-height="1494"
     inkscape:window-x="-11"
     inkscape:window-y="-11"
     inkscape:window-maximized="1"
     inkscape:current-layer="g38" />
  <g
     id="_图层_1"
     data-name="图层 1">
    <g
       id="g148">
      <g
         id="g38" />
      <g
         id="g146">
        <path
           d="M 34.92,0 C 54.15,0 69.84,15.69 69.84,34.92 69.84,54.15 54.15,69.84 34.92,69.84 15.69,69.84 0,54.16 0,34.92 0,15.68 15.69,0 34.92,0 m 0,1.39 c -18.46,0 -33.53,15.07 -33.53,33.53 0,18.46 15.06,33.53 33.53,33.53 18.47,0 33.53,-15.06 33.53,-33.53 C 68.45,16.45 53.39,1.39 34.92,1.39"
           style="fill:#003f89"
           id="path68" />
        <path
           d="m 22.66,49.81 c -2.18,-1.81 -3.97,-4.09 -5.2,-6.68 -1.18,-2.49 -1.84,-5.27 -1.84,-8.21 0,-10.63 8.67,-19.3 19.3,-19.3 10.63,0 19.3,8.67 19.3,19.3 0,2.93 -0.66,5.72 -1.84,8.21 -1.22,2.59 -3.01,4.87 -5.2,6.68 l -0.44,-0.54 c 2.11,-1.75 3.83,-3.94 5.01,-6.44 1.13,-2.4 1.77,-5.09 1.77,-7.91 0,-10.25 -8.36,-18.61 -18.61,-18.61 -10.25,0 -18.61,8.36 -18.61,18.61 0,2.83 0.64,5.51 1.77,7.91 1.18,2.49 2.9,4.69 5.01,6.44 l -0.44,0.54 z"
           style="fill:#003f89"
           id="path70" />
        <polygon
           points="11.45,44.23 10.74,44.47 4.7,43.56 5.73,46.33 5.02,46.59 3.7,43.05 4.42,42.8 10.46,43.72 9.53,41.24 10.25,40.99 "
           style="fill:#003f89;fill-rule:evenodd"
           id="polygon72" />
        <polygon
           points="11.76,45.12 12.12,45.82 9.56,47.13 10.46,48.89 13.02,47.57 13.38,48.28 7.31,51.4 6.95,50.69 9.79,49.24 8.89,47.49 6.05,48.94 5.69,48.23 "
           style="fill:#003f89;fill-rule:evenodd"
           id="polygon74" />
        <polygon
           points="11.82,50.87 13.26,52.88 12.62,53.27 11.19,51.26 9.16,52.52 10.83,54.85 10.19,55.24 8.04,52.23 13.73,48.69 15.78,51.56 15.15,51.96 13.58,49.77 "
           style="fill:#003f89;fill-rule:evenodd"
           id="polygon76" />
        <polygon
           points="18.5,54.22 19.22,54.83 15.03,59.98 14.31,59.37 "
           style="fill:#003f89;fill-rule:evenodd"
           id="polygon78" />
        <path
           d="m 18.28,62.24 0.86,-1.83 -1.04,-0.75 -1.55,1.51 -0.71,-0.55 4.91,-4.85 0.99,0.6 -2.62,6.34 z m 1.25,-2.72 1.02,-2.35 -0.09,-0.08 -1.77,1.81 z"
           style="fill:#003f89;fill-rule:evenodd"
           id="path80" />
        <polygon
           points="23.88,57.33 23.51,61.82 25.51,58.11 26.25,58.42 23.2,64.62 22.31,64.21 22.83,59.48 20.89,63.46 20,63.05 23.08,56.96 "
           style="fill:#003f89;fill-rule:evenodd"
           id="polygon82" />
        <path
           d="m 27.78,65.99 -0.57,-0.19 0.05,-0.54 c -0.13,0.11 -0.31,0.19 -0.53,0.22 -0.22,0.04 -0.44,0.02 -0.67,-0.06 -0.47,-0.15 -0.82,-0.52 -1.05,-1.11 -0.23,-0.59 -0.18,-1.4 0.14,-2.43 0.35,-1.13 0.78,-1.91 1.28,-2.35 0.5,-0.44 1.28,-0.68 1.96,-0.47 0.73,0.23 1.21,1.14 1,2.38 l -0.87,-0.07 c 0.15,-0.53 0.07,-1.37 -0.45,-1.54 -0.43,-0.14 -0.9,0 -1.2,0.33 -0.3,0.34 -0.6,0.97 -0.88,1.91 -0.27,0.89 -0.35,1.53 -0.23,1.94 0.12,0.41 0.33,0.66 0.62,0.76 0.29,0.09 0.56,0.06 0.8,-0.12 0.24,-0.17 0.43,-0.5 0.58,-0.98 l 0.12,-0.4 -1.05,-0.34 0.22,-0.68 1.72,0.56 -0.98,3.17 z"
           style="fill:#003f89;fill-rule:evenodd"
           id="path84" />
        <path
           d="m 36.86,64.48 c -0.02,0.62 -0.19,1.1 -0.49,1.44 -0.31,0.35 -0.78,0.51 -1.42,0.48 -0.64,-0.02 -1.11,-0.22 -1.39,-0.59 -0.28,-0.37 -0.41,-0.86 -0.4,-1.48 l 0.15,-4.65 0.82,0.04 -0.15,4.65 c -0.02,0.44 0.07,0.76 0.26,0.97 0.18,0.21 0.43,0.32 0.74,0.34 0.31,0.01 0.56,-0.08 0.76,-0.28 0.2,-0.2 0.3,-0.51 0.32,-0.95 l 0.15,-4.65 0.82,0.03 -0.15,4.65 z"
           style="fill:#003f89;fill-rule:evenodd"
           id="path86" />
        <polygon
           points="38.46,59.52 40.36,62.63 40.01,59.28 40.73,59.15 41.52,65.72 40.79,65.84 38.48,61.4 38.84,66.17 37.97,66.29 37.46,59.61 "
           style="fill:#003f89;fill-rule:evenodd"
           id="polygon88" />
        <polygon
           points="41.38,58.97 42.23,58.7 44.01,65.03 43.16,65.29 "
           style="fill:#003f89;fill-rule:evenodd"
           id="polygon90" />
        <polygon
           points="45.53,57.36 46.32,57.02 47.4,64 46.56,64.41 42.86,58.49 43.68,58.14 46.25,62.18 "
           style="fill:#003f89;fill-rule:evenodd"
           id="polygon92" />
        <polygon
           points="48.81,58.9 50.89,57.78 51.26,58.42 49.19,59.55 50.4,61.63 52.81,60.32 53.19,60.97 50.07,62.66 46.67,56.82 49.64,55.22 50.02,55.87 47.75,57.09 "
           style="fill:#003f89;fill-rule:evenodd"
           id="polygon94" />
        <path
           d="m 56.74,58.48 -0.69,0.59 -2.42,-2.01 -0.62,0.57 1.63,2.22 -0.69,0.71 -4,-5.62 1.27,-0.91 c 0.41,-0.29 0.94,-0.5 1.43,-0.44 1.24,0.15 1.78,0.99 1.72,1.96 -0.02,0.31 -0.04,0.61 -0.16,0.91 l 2.52,2 z m -4.31,-3.96 c -0.51,-0.13 -0.91,0.26 -1.27,0.54 l 1.33,1.76 c 0.41,-0.3 0.59,-0.36 0.9,-0.89 0.13,-0.64 -0.15,-1.2 -0.96,-1.41"
           style="fill:#003f89;fill-rule:evenodd"
           id="path96" />
        <path
           d="m 58.9,53.05 c 1.4,0.84 1.07,3.22 -0.76,3.5 -0.49,0.07 -1.08,-0.08 -1.32,-0.23 l 0.31,-0.71 c 0.3,0.06 0.61,0.18 0.9,0.12 1.19,-0.23 1.14,-1.46 0.44,-1.97 -0.24,-0.18 -0.58,-0.2 -0.87,-0.17 -0.8,0.09 -1.32,0.69 -2.21,0.75 -0.97,0.06 -1.65,-0.54 -1.82,-1.49 -0.08,-0.5 0.04,-0.99 0.29,-1.38 0.51,-0.81 1.61,-0.92 2.41,-0.45 l -0.31,0.73 c -0.43,-0.22 -1.2,-0.22 -1.49,0.23 -0.15,0.23 -0.2,0.48 -0.16,0.72 0.1,0.54 0.46,0.86 0.98,0.79 0.87,-0.1 1.45,-0.81 2.3,-0.79 0.4,0.01 0.88,0.11 1.29,0.36"
           style="fill:#003f89;fill-rule:evenodd"
           id="path98" />
        <polygon
           points="55.59,49.2 56.09,48.58 61.85,52.19 61.35,52.81 "
           style="fill:#003f89;fill-rule:evenodd"
           id="polygon100" />
        <polygon
           points="56.63,47.55 58.27,44.51 58.94,44.91 58.31,46.09 63.74,49.29 63.37,49.96 57.94,46.77 57.3,47.95 "
           style="fill:#003f89;fill-rule:evenodd"
           id="polygon102" />
        <polygon
           points="58.65,43.42 61.95,43.47 59.62,41.33 59.94,40.42 63.25,43.38 65.47,44.33 65.2,45.08 63.15,44.28 58.43,44.18 "
           style="fill:#003f89;fill-rule:evenodd"
           id="polygon104" />
        <path
           d="m 14.52,57 c -0.59,0.59 -1.13,0.89 -1.64,0.91 -0.51,0.02 -0.97,-0.19 -1.38,-0.61 -0.37,-0.38 -0.56,-0.83 -0.56,-1.34 0,-0.26 0.08,-0.53 0.23,-0.8 l 0.75,0.46 c -0.07,0.13 -0.1,0.25 -0.1,0.37 0,0.28 0.08,0.51 0.26,0.69 0.25,0.26 0.52,0.37 0.79,0.35 0.28,-0.02 0.61,-0.23 1.01,-0.63 l 3.32,-3.29 0.62,0.63 -3.29,3.25 z"
           style="fill:#003f89;fill-rule:evenodd"
           id="path106" />
        <path
           d="m 25.81,55.85 -2.32,-1.44 0.21,-0.37 0.86,0.53 1.38,-2.41 -0.87,-0.54 0.19,-0.32 c 0.33,0.2 0.59,0.32 0.78,0.34 0.19,0.03 0.36,-0.05 0.49,-0.24 l 0.5,0.31 -1.86,3.23 0.84,0.53 -0.21,0.36 z m 6.94,-1.47 c 0.04,-0.19 -0.02,-0.35 -0.19,-0.5 -0.17,-0.15 -0.42,-0.25 -0.76,-0.3 -0.31,-0.04 -0.58,-0.02 -0.8,0.06 -0.22,0.08 -0.35,0.22 -0.39,0.41 -0.03,0.14 0,0.26 0.08,0.37 0.08,0.11 0.21,0.21 0.4,0.32 0.08,0.04 0.21,0.11 0.38,0.19 0.17,0.08 0.33,0.14 0.47,0.2 0.27,-0.09 0.46,-0.19 0.58,-0.31 0.12,-0.12 0.19,-0.26 0.23,-0.43 m -0.3,2.08 c 0.03,-0.17 0.01,-0.31 -0.07,-0.42 -0.08,-0.12 -0.26,-0.24 -0.54,-0.39 -0.09,-0.04 -0.21,-0.09 -0.36,-0.16 -0.15,-0.06 -0.33,-0.14 -0.52,-0.22 -0.26,0.07 -0.46,0.17 -0.62,0.3 -0.15,0.12 -0.25,0.29 -0.29,0.48 -0.05,0.25 0.03,0.47 0.23,0.67 0.2,0.19 0.47,0.32 0.83,0.37 0.36,0.05 0.66,0.02 0.91,-0.09 0.25,-0.11 0.39,-0.28 0.44,-0.52 m -1.44,1.02 C 30.7,57.47 30.42,57.4 30.17,57.3 29.92,57.2 29.72,57.08 29.56,56.95 29.4,56.81 29.29,56.66 29.23,56.5 29.17,56.33 29.16,56.17 29.19,56 c 0.04,-0.22 0.18,-0.41 0.4,-0.58 0.22,-0.16 0.52,-0.27 0.89,-0.33 v -0.02 c -0.29,-0.16 -0.49,-0.32 -0.62,-0.48 -0.12,-0.16 -0.16,-0.35 -0.12,-0.55 0.06,-0.31 0.29,-0.54 0.7,-0.7 0.41,-0.16 0.89,-0.19 1.44,-0.12 0.58,0.08 1.03,0.24 1.34,0.49 0.31,0.24 0.43,0.52 0.37,0.82 -0.04,0.19 -0.16,0.36 -0.36,0.51 -0.2,0.16 -0.47,0.26 -0.81,0.32 v 0.02 c 0.34,0.16 0.6,0.34 0.76,0.52 0.16,0.19 0.21,0.41 0.16,0.66 -0.07,0.35 -0.33,0.62 -0.77,0.8 -0.45,0.18 -0.96,0.23 -1.56,0.15 m 8.05,-2.55 c 0,-0.28 -0.04,-0.51 -0.12,-0.69 -0.08,-0.18 -0.19,-0.32 -0.32,-0.42 -0.12,-0.08 -0.25,-0.15 -0.38,-0.18 -0.12,-0.03 -0.26,-0.05 -0.41,-0.05 -0.35,0 -0.62,0.08 -0.82,0.24 -0.21,0.17 -0.31,0.41 -0.31,0.72 0,0.17 0.03,0.32 0.1,0.44 0.07,0.11 0.18,0.21 0.33,0.29 0.1,0.06 0.23,0.1 0.36,0.12 0.13,0.02 0.28,0.03 0.43,0.03 0.18,0 0.38,-0.02 0.58,-0.06 0.21,-0.04 0.39,-0.1 0.54,-0.17 0,-0.03 0,-0.06 0.01,-0.11 0,-0.05 0,-0.1 0,-0.16 m -3.22,-0.35 c 0,-0.22 0.06,-0.42 0.16,-0.59 0.11,-0.18 0.25,-0.33 0.43,-0.46 0.18,-0.12 0.39,-0.22 0.64,-0.29 0.25,-0.07 0.5,-0.11 0.76,-0.11 0.29,0 0.55,0.04 0.78,0.1 0.24,0.06 0.43,0.16 0.61,0.28 0.22,0.15 0.38,0.35 0.5,0.6 0.12,0.25 0.18,0.57 0.18,0.95 0,0.34 -0.06,0.67 -0.18,0.98 -0.12,0.31 -0.29,0.57 -0.52,0.78 -0.24,0.21 -0.53,0.38 -0.87,0.49 -0.34,0.11 -0.76,0.17 -1.25,0.17 -0.11,0 -0.23,0 -0.36,-0.01 -0.13,-0.01 -0.25,-0.03 -0.36,-0.05 v -0.54 h 0.04 c 0.07,0.03 0.18,0.06 0.33,0.08 0.15,0.02 0.3,0.03 0.45,0.03 0.55,0 0.98,-0.12 1.3,-0.36 0.31,-0.24 0.49,-0.58 0.53,-1.03 -0.22,0.1 -0.44,0.18 -0.64,0.22 -0.2,0.05 -0.43,0.07 -0.67,0.07 -0.24,0 -0.44,-0.02 -0.63,-0.05 -0.19,-0.03 -0.38,-0.1 -0.57,-0.2 -0.23,-0.11 -0.4,-0.26 -0.51,-0.43 -0.12,-0.18 -0.17,-0.38 -0.17,-0.63 m 9.12,-3.58 -0.15,4.31 -0.66,0.41 0.06,-4.07 -2.52,1.22 -0.22,-0.49 3.16,-1.64 z"
           style="fill:#003f89;fill-rule:evenodd"
           id="path108" />
        <g
           id="g114">
          <path
             d="m 46.32,16.13 c -0.51,-0.25 -0.15,-0.34 -0.12,-0.81 0.02,-0.41 -0.24,-0.88 -0.16,-1.17 0.22,-0.78 1.22,-0.48 1.77,-0.08 0.1,0.07 0.19,0.26 0.26,0.46 0.18,0.47 0.36,1.14 -0.18,1.47 -0.47,0.3 -1.13,0.35 -1.57,0.14"
             style="fill:#003f89;fill-rule:evenodd"
             id="path110" />
          <path
             d="m 40.45,13.84 c 0,0 -0.03,-0.02 -0.04,-0.04 0.02,-0.06 0.04,-0.12 0.05,-0.16 0.18,-0.03 1.86,-0.62 1.87,-0.66 0.51,-0.23 0.97,-0.52 1.23,-1.03 -1.12,0.08 -2.29,0.6 -3.38,0.42 -0.47,-0.25 -0.75,-0.6 -1.06,-0.84 0,-0.02 0,-0.04 0.01,-0.06 -0.48,-0.51 -0.41,-1 0.27,-1.05 1.02,0.5 2.87,0.13 3.98,0 0.25,-0.05 0.97,-0.12 1.2,-0.29 0.59,-1.37 0.78,-2.84 1.2,-4.19 0.59,-0.9 1.04,-0.08 1.53,0.57 0.02,0.09 0.14,0.21 0.22,0.43 0.02,0 0.03,0 0.06,0.01 0.16,0.47 0.18,0.68 -0.31,0.96 -0.43,0.6 -0.75,1.31 -0.9,2.1 0.77,0.08 1.38,-0.46 2.24,-0.27 0.11,0.45 0,0.79 -0.46,1.02 -0.7,0.15 -1.45,0.25 -2.24,0.4 -0.34,0.68 -0.84,1.5 -1.5,1.96 -0.09,0.07 -0.55,0.32 -0.65,0.35 -0.53,0.16 -1.02,0.37 -1.56,0.4 -1.49,0.05 -1.49,-0.02 -1.75,-0.04"
             style="fill:#003f89;fill-rule:evenodd"
             id="path112" />
        </g>
        <g
           id="g126">
          <path
             d="m 23.44,18.81 c -0.62,-0.04 -1.34,-0.48 -1.78,-0.77 0,-0.16 -0.02,-0.32 -0.01,-0.47 0.87,-1.41 1.76,-2.76 2.44,-4.3 0.13,-0.66 0.36,-1.38 0.52,-2.04 0.01,-0.01 0.03,-0.03 0.05,-0.05 -0.01,-0.02 -0.02,-0.04 -0.02,-0.05 0.22,-0.37 0.33,-0.49 0.75,-0.19 0.15,0.33 -0.31,0.93 -0.38,1.32 0,0.7 -0.03,1.42 -0.09,2.16 q -0.05,0.15 -0.19,0.95 c -0.23,0.39 -0.41,1.24 -0.44,1.71 -0.3,0.38 -0.2,1.14 -0.57,1.57 -0.1,0.04 -0.19,0.1 -0.28,0.15"
             style="fill:#003f89;fill-rule:evenodd"
             id="path116" />
          <path
             d="m 29.04,11.6 c -0.78,0.26 -1.18,-0.13 -1.77,-0.41 -0.09,-0.2 -0.02,-0.37 -0.06,-0.51 q 0.17,-0.12 0.26,-0.24 c 0.3,-0.17 0.42,-0.2 0.76,-0.36 0.4,-0.27 1.22,-1.49 1.73,-1.31 0.42,0.91 -0.22,2.24 -0.92,2.83"
             style="fill:#003f89;fill-rule:evenodd"
             id="path118" />
          <path
             d="m 22.6,12.44 c -0.39,-0.14 -0.91,-1.3 -1.08,-1.66 -0.04,-0.74 0.61,-1.03 1.33,-0.82 0.67,0.41 1.06,0.53 0.87,1.39 -0.34,0.65 -0.56,0.78 -1.11,1.1"
             style="fill:#003f89;fill-rule:evenodd"
             id="path120" />
          <path
             d="M 28.03,9.65 C 27.81,9.32 28,8.37 27.79,8.24 27.61,8.34 27.45,8.48 27.26,8.57 26.71,8.53 25.99,8.16 26,7.66 26.19,7.14 26.1,7.29 26.61,7.05 27.03,6.63 27.44,6.22 27.87,5.79 28.66,5.3 29.24,5.61 29.62,6.42 29.68,7.03 29.49,7.59 29.3,8.16 28.94,8.59 28.64,9.02 28.33,9.45 28.21,9.52 28.11,9.58 28.01,9.65"
             style="fill:#003f89;fill-rule:evenodd"
             id="path122" />
          <path
             d="M 22.39,9.07 C 22.15,8.98 22.19,8.87 22.22,8.67 22.06,8.33 21.73,8.12 21.58,7.79 21.45,7.12 21.24,6.94 21.64,6.44 c 0.47,0.02 2.15,0.18 2.12,1.1 -0.19,0.63 -0.84,1.24 -1.37,1.53"
             style="fill:#003f89;fill-rule:evenodd"
             id="path124" />
        </g>
        <path
           d="m 13.81,32.08 c -0.72,0.5 -2.47,0.17 -2.24,-0.87 -0.1,-0.1 -0.15,-0.29 -0.12,-0.41 -0.02,-0.01 -0.04,-0.02 -0.05,-0.03 -0.18,-1.09 -0.77,-2.14 -1.1,-3.16 -0.17,-0.33 -0.37,-0.58 -0.24,-0.93 0.24,-0.06 0.51,0.2 0.71,0.4 C 10.88,27.05 11,26.79 11.04,26.62 10.96,25.9 11.02,25.07 10.92,24.33 10.73,24.17 10.55,24 10.37,23.84 10.22,24.21 9.75,25.42 9.34,24.77 9.45,24.27 9.52,23.45 9.24,22.94 8.88,22.55 8.37,22.28 8.21,21.85 c 0.07,-0.6 0.99,-0.74 1.52,-0.51 0.43,0.04 0.43,-0.77 0.92,0.57 0.01,0.22 0.22,0.35 0.46,0.48 0.04,-0.05 0.08,-0.09 0.11,-0.14 0,-0.58 -0.02,-1.2 0.03,-1.81 -0.53,-0.54 -0.98,-0.99 -1.3,-1.64 0,-0.62 0.71,-0.99 1.33,-1.18 0.2,-0.34 0.2,-0.62 0.19,-1.06 q 0.04,-0.14 0.19,-0.35 c 0.21,0.01 0.39,0.09 0.63,0.23 0.49,0.64 -0.54,2.58 0.43,2.74 0.2,-0.33 -0.08,-0.67 -0.22,-0.95 0.06,-0.48 0.8,-1.08 1.33,-1.26 0.78,-0.07 0.73,0.36 0.73,1.03 0.04,0.1 0.07,0.19 0.11,0.27 q 0.99,0.72 2.35,1.64 c 0.26,0.41 0.37,0.64 0.47,1.13 0.01,0 0.03,0.02 0.04,0.03 -0.01,0.02 -0.02,0.04 -0.03,0.06 0.19,0.38 0.19,1.01 -0.27,1.07 -1.12,-0.76 -2.23,-1.62 -3.33,-2.32 -0.01,0.03 -0.02,0.05 -0.02,0.07 0.49,0.46 1.14,1.7 1.15,2.4 -0.27,0.45 -0.76,0.63 -1.21,0.51 -0.08,-0.12 -0.05,-0.22 -0.07,-0.36 -0.33,-0.58 -1.29,-1.14 -1.78,-1.47 -0.19,0.38 0.19,1.51 0.31,1.98 0.02,0.27 0.04,0.54 0.06,0.81 0.33,0.41 0.68,0.79 1.04,1.2 0.13,0.23 0.27,0.47 0.42,0.7 -0.01,0.02 -0.02,0.03 -0.03,0.05 0.16,0.35 0.52,1.37 -0.15,1.37 -0.06,-0.04 -0.12,-0.07 -0.18,-0.12 -0.21,-0.53 -0.61,-1.1 -1.05,-1.42 -0.16,0.52 0.04,1.08 -0.23,1.52 -0.22,0.21 -0.47,0.41 -0.66,0.52 -0.02,-0.01 -0.04,-0.02 -0.05,-0.03 -0.14,0.06 -0.3,0.1 -0.32,0.18 0.19,0.24 0.38,0.49 0.58,0.73 0.62,1.08 1.31,2.02 2.12,3.01 0.05,0.27 0.04,0.35 -0.04,0.54"
           style="fill:#003f89;fill-rule:evenodd"
           id="path128" />
        <path
           d="m 9.07,27.59 c -0.28,0 -0.43,-0.33 -0.64,-0.5 -0.78,-0.22 -1.36,-0.38 -1.62,-1.15 0.03,-0.07 0.07,-0.14 0.11,-0.2 0.4,-0.15 1.16,-0.24 1.66,-0.27 0.97,0.21 0.64,1.42 0.48,2.12"
           style="fill:#003f89;fill-rule:evenodd"
           id="path130" />
        <path
           d="M 7.04,25.3 C 6.87,25.42 6.84,25.39 6.76,25.39 6.66,25.21 6.62,25.07 6.44,25 5.58,24.97 4.69,24.33 4.85,23.46 c 0.16,-0.18 0.32,-0.07 0.65,0.03 0.72,-0.15 1.8,-0.6 1.84,0.57 -0.07,0.42 -0.21,0.85 -0.31,1.25"
           style="fill:#003f89;fill-rule:evenodd"
           id="path132" />
        <path
           d="m 51.32,26.41 h -8.49 c -2.48,0 -3.75,2.42 -4.69,4.62 l -1.43,-3.22 2.4,-0.88 C 37.7,25.6 33.32,24.87 32.74,26.88 l -1.03,4.16 c -0.82,-1.88 -1.97,-4.62 -4.56,-4.62 h -8.62 c 1.12,1.98 2.19,2.7 6.16,2.53 l 0.52,1.36 -4.35,0.02 c 1.28,2.37 2.02,2.47 5.52,2.37 l 0.74,1.63 -3.42,0.12 c 0.73,1.67 1.51,2.39 4.44,2.26 l 0.57,1.45 h -2.72 c 1.02,1.7 1.52,2.47 3.68,2.28 l 0.58,1.58 h -1.88 c 0.81,1.82 1.76,1.89 2.92,2.08 1.04,0.16 1.19,2.11 -0.02,2.74 l 3.66,5.93 3.66,-5.94 c -1.22,-0.63 -1.07,-2.58 -0.02,-2.74 1.16,-0.18 2.11,-0.25 2.92,-2.08 h -1.88 l 0.58,-1.58 c 2.15,0.19 2.66,-0.58 3.68,-2.26 h -2.72 c 0,0 0.57,-1.46 0.57,-1.46 2.93,0.13 3.71,-0.58 4.44,-2.26 l -3.42,-0.12 0.74,-1.63 c 3.5,0.1 4.24,0 5.52,-2.37 l -4.35,-0.02 0.52,-1.37 c 3.96,0.17 5.03,-0.54 6.16,-2.52"
           style="fill:#003f89"
           id="path134" />
        <path
           d="m 64.25,22.34 0.03,-0.07 c 0.12,-0.31 0.11,-0.43 0.08,-0.49 -0.04,-0.07 -0.17,-0.11 -0.38,-0.16 -0.06,-0.02 -0.12,-0.02 -0.2,-0.03 l -0.12,-0.02 -0.04,-0.08 c 0,0 -0.08,-0.08 -0.14,-0.12 l -0.16,-0.06 -0.04,-0.02 0.21,-0.16 C 63.64,21.01 63.81,20.96 64,20.9 l 0.02,-0.05 0.08,0.03 c 0.3,-0.26 0.5,-0.64 0.53,-1.04 -0.09,-0.12 -0.25,-0.18 -0.48,-0.18 -0.3,0 -0.66,0.12 -0.98,0.21 -0.2,0.07 -0.44,0.14 -0.66,0.19 l -0.08,-0.04 c -0.54,-0.26 -0.57,-0.27 -1.7,-0.87 -0.08,0.06 -0.15,0.13 -0.18,0.23 -0.07,0.16 -0.06,0.35 0.03,0.52 l 0.11,0.08 v 0 c 0,0 0,0.01 0,0.01 l -0.27,0.14 c -0.06,0.04 -0.08,0.04 -0.07,0.04 v 0 l -0.08,0.07 c 0,0 0.02,0.08 0.07,0.15 l 0.02,0.12 c 0,0.11 -0.02,0.15 -0.11,0.25 l -0.03,0.13 v 0 0.02 l -0.16,-0.13 c -0.22,-0.17 -0.24,-0.19 -0.4,-0.34 -0.04,0 -0.09,-0.01 -0.14,-0.01 -0.12,0 -0.22,0.04 -0.27,0.11 -0.05,0.07 -0.04,0.15 0,0.27 l -0.02,0.06 c -0.04,0.16 -0.17,0.44 -0.68,0.45 h -0.26 c 0,0 -0.1,0 -0.18,0.04 0,0.34 0.15,0.37 0.51,0.43 0.14,0.02 0.28,0.04 0.48,0.09 0.03,-0.01 0.07,-0.02 0.1,-0.02 0.08,0 0.14,0.03 0.21,0.06 l 0.27,0.11 0.1,0.03 0.05,0.02 -0.33,0.16 c -0.12,0.07 -0.21,0.11 -0.33,0.24 -0.02,0.09 -0.07,0.18 -0.15,0.28 v 0.07 c 0,0 -0.15,-0.03 -0.15,-0.03 -0.24,-0.06 -0.49,-0.12 -0.73,-0.18 l -0.38,-0.1 c -0.67,-0.18 -1.49,-0.39 -2.27,-0.53 -0.19,-0.07 -0.36,-0.1 -0.54,-0.13 l -0.37,-0.04 -0.02,0.1 c 0.09,0.07 0.21,0.16 0.4,0.28 l 0.02,0.06 c 0.11,0.26 0.28,0.57 0.69,0.8 0.27,0.05 0.55,0.09 0.88,0.12 0.97,0.11 1.98,0.23 2.76,0.82 l 0.21,0.1 h 0.05 c 0,0 0,0 0,0 v 0 l -0.29,0.15 c -0.07,0.04 -0.14,0.08 -0.23,0.16 l -0.09,-0.02 q -0.94,-0.21 -1.27,-0.32 c -0.34,-0.22 -0.5,-0.29 -0.68,-0.29 -0.14,0 -0.3,0.06 -0.56,0.22 -0.02,0 -0.03,0.01 -0.04,0.02 H 56.4 c 0,0 -0.02,0.02 -0.02,0.03 l -0.1,-0.04 c -0.1,-0.04 -0.11,-0.04 -0.39,-0.08 -0.26,-0.09 -0.53,-0.18 -0.81,-0.27 -0.81,-0.26 -1.65,-0.54 -2.34,-1 -0.2,-0.17 -0.34,-0.33 -0.45,-0.46 -0.04,-0.05 -0.06,-0.07 -0.08,-0.07 v 0 l -0.07,-0.08 c -0.05,0.01 -0.14,0.09 -0.28,0.24 -0.15,0.46 0.27,1.56 0.64,1.88 0.26,0.12 0.54,0.17 0.84,0.22 0.49,0.09 1,0.18 1.49,0.59 l 0.13,0.03 h 0.01 c 0,0 -0.12,0.17 -0.12,0.17 -0.16,0.21 -0.35,0.38 -0.56,0.58 l -0.09,0.08 c -0.06,0.05 -0.12,0.1 -0.17,0.16 h -0.09 c -0.07,0.02 -0.13,0.03 -0.21,0.03 -0.36,0 -0.67,-0.17 -0.94,-0.33 -0.09,-0.05 -0.18,-0.09 -0.31,-0.13 l -0.05,0.09 c 0.37,0.65 0.89,1.24 1.58,1.81 l 0.06,0.1 c 0.08,0.05 0.17,0.07 0.25,0.07 h 0.01 c 0.49,-0.01 1.02,-0.68 1.42,-1.18 0.08,-0.1 0.16,-0.21 0.25,-0.3 l 0.1,-0.07 c 0.37,-0.27 0.4,-0.29 0.38,-0.29 l 0.09,0.02 c 0.31,0.09 0.51,0.21 0.81,0.37 0.29,-0.13 0.59,-0.42 0.56,-0.74 l -0.12,-0.11 c -0.18,-0.16 -0.35,-0.32 -0.53,-0.48 l -0.09,-0.02 0.06,-0.15 c 0.07,-0.16 0.16,-0.25 0.29,-0.38 l 0.02,-0.07 0.12,0.03 c 0.53,0.12 1,0.27 1.58,0.44 l 0.5,0.17 0.12,0.09 c 0.29,0.22 0.5,0.38 0.83,0.38 0.05,0 0.1,0 0.18,-0.04 0.31,-0.32 0.49,-0.53 0.61,-0.78 v 0 c 0,0 0,-0.01 0,-0.02 -0.1,-0.14 -0.14,-0.18 -0.16,-0.18 l 0.09,-0.11 c 0,0 0.06,-0.06 0.15,-0.11 0.85,-0.27 1.78,-0.61 2.46,-0.85 0.41,-0.25 0.45,-0.28 0.31,-0.66 -0.03,-0.06 -0.06,-0.14 -0.11,-0.24 m -3.32,0.51 0.14,-0.12 c 0.19,-0.18 0.28,-0.26 0.29,-0.35 0,-0.03 -0.05,-0.08 -0.13,-0.14 h -0.04 c 0,0 -0.05,0 -0.09,0 -0.15,0 -0.25,-0.07 -0.3,-0.14 L 60.74,22.07 V 22 c 0,0 0.06,-0.18 0.06,-0.18 h -0.03 c 0,0 0.19,-0.07 0.19,-0.07 q 0.63,-0.21 0.73,-0.27 l 0.05,-0.08 0.12,0.1 c 0.13,0.12 0.57,0.51 0.64,1.02 l -0.06,0.07 c -0.33,0.4 -0.79,0.46 -1.22,0.48 L 61.1,23.1 61.04,22.92 60.96,22.87 v 0 z"
           style="fill:#003f89"
           id="path136" />
        <path
           d="m 57.3,21.35 c -0.19,0 -0.37,-0.06 -0.53,-0.17 -0.1,-0.41 0.2,-0.84 0.42,-1.16 0.07,-0.11 0.13,-0.19 0.18,-0.26 l 0.04,-0.1 0.07,-0.14 c 0.09,-0.17 0.18,-0.34 0.26,-0.53 0.03,-0.1 0.06,-0.2 0.08,-0.29 0.13,-0.53 0.23,-0.86 0.5,-0.95 0.21,0.03 0.31,0.06 0.36,0.14 0.05,0.08 0.03,0.18 0,0.38 l -0.03,0.08 c 0.03,0.06 0.04,0.16 0.05,0.25 0.06,0.31 0.07,0.64 0.04,0.93 v 0.12 c -0.03,0.12 -0.06,0.21 -0.1,0.32 -0.12,0.37 -0.26,0.8 -0.54,1.05 l -0.11,0.11 -0.08,0.04 c -0.19,0.12 -0.39,0.19 -0.59,0.19 H 57.3 Z"
           style="fill:#003f89"
           id="path138" />
        <path
           d="m 57.3,21.34 h 0.02 c 0.19,0 0.39,-0.07 0.58,-0.19 l 0.07,-0.04 0.11,-0.1 c 0.27,-0.25 0.41,-0.67 0.53,-1.05 0.03,-0.1 0.07,-0.2 0.08,-0.31 l 0.02,-0.12 c 0.03,-0.33 0.01,-0.64 -0.04,-0.93 -0.01,-0.09 -0.02,-0.18 -0.04,-0.26 h -0.01 l 0.03,-0.07 c 0.04,-0.19 0.06,-0.3 0.01,-0.37 -0.05,-0.07 -0.14,-0.1 -0.34,-0.13 -0.26,0.09 -0.36,0.41 -0.48,0.91 -0.03,0.1 -0.06,0.2 -0.09,0.32 -0.08,0.19 -0.17,0.36 -0.26,0.53 l -0.08,0.14 -0.04,0.09 c -0.04,0.08 -0.1,0.16 -0.18,0.26 -0.22,0.32 -0.52,0.75 -0.42,1.14 0.16,0.11 0.33,0.17 0.52,0.17"
           style="fill:#003f89"
           id="path140" />
        <path
           d="m 55.43,20.87 c -0.09,0 -0.21,-0.05 -0.43,-0.19 -0.29,-0.64 0.74,-1.38 0.86,-1.46 0.17,0.04 0.26,0.13 0.32,0.29 0.12,0.33 0.03,0.79 -0.19,1.05 -0.31,0.22 -0.44,0.31 -0.56,0.31 z"
           style="fill:#003f89"
           id="path142" />
        <path
           d="m 55.43,20.85 v 0 c 0.11,0 0.24,-0.09 0.54,-0.3 0.22,-0.26 0.3,-0.72 0.19,-1.04 -0.05,-0.15 -0.14,-0.24 -0.29,-0.28 -0.12,0.08 -1.13,0.81 -0.86,1.43 0.21,0.13 0.33,0.19 0.42,0.19"
           style="fill:#003f89"
           id="path144" />
      </g>
    </g>
  </g>
</svg>
